{
  "accessors": [
    {
      "bufferView": 2,
      "componentType": 5126,
      "count": 8840,
      "max": [
        35.308280944824219,
        -14.855670928955078,
        156.84065246582031
      ],
      "min": [
        -32.666893005371094,
        -21.598674774169922,
        42.835018157958984
      ],
      "type": "VEC3"
    },
    {
      "bufferView": 2,
      "byteOffset": 106080,
      "componentType": 5126,
      "count": 8840,
      "max": [
        1,
        1,
        1
      ],
      "min": [
        -1,
        -1,
        -1
      ],
      "type": "VEC3"
    },
    {
      "bufferView": 3,
      "componentType": 5126,
      "count": 8840,
      "max": [
        1,
        1,
        1,
        1
      ],
      "min": [
        -1,
        -1,
        -1,
        -1
      ],
      "type": "VEC4"
    },
    {
      "bufferView": 1,
      "componentType": 5126,
      "count": 8840,
      "max": [
        0.99782800674438477,
        0.99831497669219971
      ],
      "min": [
        0.0016700000269338489,
        0.0016210000030696392
      ],
      "type": "VEC2"
    },
    {
      "bufferView": 0,
      "componentType": 5125,
      "count": 39768,
      "max": [
        8839
      ],
      "min": [
        0
      ],
      "type": "SCALAR"
    },
    {
      "bufferView": 2,
      "byteOffset": 212160,
      "componentType": 5126,
      "count": 6,
      "max": [
        33.626121520996094,
        -4.7332229614257812,
        181.87899780273438
      ],
      "min": [
        -33.626121520996094,
        -15.591086387634277,
        28.396026611328125
      ],
      "type": "VEC3"
    },
    {
      "bufferView": 1,
      "byteOffset": 70720,
      "componentType": 5126,
      "count": 6,
      "max": [
        0,
        0
      ],
      "min": [
        0,
        0
      ],
      "type": "VEC2"
    },
    {
      "bufferView": 0,
      "byteOffset": 159072,
      "componentType": 5125,
      "count": 6,
      "max": [
        5
      ],
      "min": [
        0
      ],
      "type": "SCALAR"
    },
    {
      "bufferView": 2,
      "byteOffset": 212232,
      "componentType": 5126,
      "count": 8122,
      "max": [
        46.22235107421875,
        40.3380126953125,
        194.99998474121094
      ],
      "min": [
        -46.22235107421875,
        -19.634347915649414,
        0
      ],
      "type": "VEC3"
    },
    {
      "bufferView": 2,
      "byteOffset": 309696,
      "componentType": 5126,
      "count": 8122,
      "max": [
        1,
        1,
        1
      ],
      "min": [
        -1,
        -1,
        -1
      ],
      "type": "VEC3"
    },
    {
      "bufferView": 3,
      "byteOffset": 141440,
      "componentType": 5126,
      "count": 8122,
      "max": [
        1,
        1,
        1,
        1
      ],
      "min": [
        -1,
        -1,
        -1,
        -1
      ],
      "type": "VEC4"
    },
    {
      "bufferView": 1,
      "byteOffset": 70768,
      "componentType": 5126,
      "count": 8122,
      "max": [
        0.99782997369766235,
        0.99797999858856201
      ],
      "min": [
        0.002019000006839633,
        0.0020220000296831131
      ],
      "type": "VEC2"
    },
    {
      "bufferView": 0,
      "byteOffset": 159096,
      "componentType": 5125,
      "count": 19902,
      "max": [
        8121
      ],
      "min": [
        0
      ],
      "type": "SCALAR"
    },
    {
      "bufferView": 2,
      "byteOffset": 407160,
      "componentType": 5126,
      "count": 4880,
      "max": [
        41.771404266357422,
        -7.1526660919189453,
        184.88937377929688
      ],
      "min": [
        -41.771404266357422,
        -15.918559074401855,
        0
      ],
      "type": "VEC3"
    },
    {
      "bufferView": 2,
      "byteOffset": 465720,
      "componentType": 5126,
      "count": 4880,
      "max": [
        0.99271321296691895,
        0.97094303369522095,
        0.9992140531539917
      ],
      "min": [
        -0.99271321296691895,
        -1,
        -1
      ],
      "type": "VEC3"
    },
    {
      "bufferView": 3,
      "byteOffset": 271392,
      "componentType": 5126,
      "count": 4880,
      "max": [
        1,
        0.99945014715194702,
        0.9999692440032959,
        1
      ],
      "min": [
        -0.99275779724121094,
        -0.99985522031784058,
        -0.99997693300247192,
        -1
      ],
      "type": "VEC4"
    },
    {
      "bufferView": 1,
      "byteOffset": 135744,
      "componentType": 5126,
      "count": 4880,
      "max": [
        0.99789398908615112,
        0.98285800218582153
      ],
      "min": [
        0.0020220000296831131,
        0.0030239999759942293
      ],
      "type": "VEC2"
    },
    {
      "bufferView": 0,
      "byteOffset": 238704,
      "componentType": 5125,
      "count": 17292,
      "max": [
        4879
      ],
      "min": [
        0
      ],
      "type": "SCALAR"
    }
  ],
  "asset": {
    "extras": {
      "author": "Interiors3D (https://sketchfab.com/Interiors3D)",
      "license": "CC-BY-4.0 (http://creativecommons.org/licenses/by/4.0/)",
      "source": "https://sketchfab.com/3d-models/ppas00-7cf225e9c4954275ad549a2302af6442",
      "title": "PPAS00"
    },
    "generator": "Sketchfab-8.78.0",
    "version": "2.0"
  },
  "bufferViews": [
    {
      "buffer": 0,
      "byteLength": 307872,
      "byteOffset": 0,
      "name": "floatBufferViews",
      "target": 34963
    },
    {
      "buffer": 0,
      "byteLength": 174784,
      "byteOffset": 307872,
      "byteStride": 8,
      "name": "floatBufferViews",
      "target": 34962
    },
    {
      "buffer": 0,
      "byteLength": 524280,
      "byteOffset": 482656,
      "byteStride": 12,
      "name": "floatBufferViews",
      "target": 34962
    },
    {
      "buffer": 0,
      "byteLength": 349472,
      "byteOffset": 1006936,
      "byteStride": 16,
      "name": "floatBufferViews",
      "target": 34962
    }
  ],
  "buffers": [
    {
      "byteLength": 1356408,
      "uri": "scene.bin"
    }
  ],
  "images": [
    {
      "uri": "textures/Metal_baseColor.jpeg"
    },
    {
      "uri": "textures/Metal_metallicRoughness.png"
    },
    {
      "uri": "textures/Metal_normal.png"
    },
    {
      "uri": "textures/Romance_baseColor.jpeg"
    },
    {
      "uri": "textures/Romance_metallicRoughness.png"
    },
    {
      "uri": "textures/Romance_normal.png"
    }
  ],
  "materials": [
    {
      "doubleSided": true,
      "name": "Metal",
      "normalTexture": {
        "index": 2,
        "scale": 1,
        "texCoord": 0
      },
      "pbrMetallicRoughness": {
        "baseColorFactor": [
          1,
          1,
          1,
          1
        ],
        "baseColorTexture": {
          "index": 0,
          "texCoord": 0
        },
        "metallicFactor": 1,
        "metallicRoughnessTexture": {
          "index": 1,
          "texCoord": 0
        },
        "roughnessFactor": 1
      }
    },
    {
      "doubleSided": true,
      "name": "Romance",
      "normalTexture": {
        "index": 5,
        "scale": 1,
        "texCoord": 0
      },
      "pbrMetallicRoughness": {
        "baseColorFactor": [
          1,
          1,
          1,
          1
        ],
        "baseColorTexture": {
          "index": 3,
          "texCoord": 0
        },
        "metallicFactor": 0,
        "metallicRoughnessTexture": {
          "index": 4,
          "texCoord": 0
        },
        "roughnessFactor": 1
      }
    }
  ],
  "meshes": [
    {
      "primitives": [
        {
          "attributes": {
            "NORMAL": 1,
            "POSITION": 0,
            "TANGENT": 2,
            "TEXCOORD_0": 3
          },
          "indices": 4,
          "material": 0,
          "mode": 4
        }
      ]
    },
    {
      "primitives": [
        {
          "attributes": {
            "POSITION": 5,
            "TEXCOORD_0": 6
          },
          "indices": 7,
          "material": 1,
          "mode": 1
        }
      ]
    },
    {
      "primitives": [
        {
          "attributes": {
            "NORMAL": 9,
            "POSITION": 8,
            "TANGENT": 10,
            "TEXCOORD_0": 11
          },
          "indices": 12,
          "material": 1,
          "mode": 4
        }
      ]
    },
    {
      "primitives": [
        {
          "attributes": {
            "NORMAL": 14,
            "POSITION": 13,
            "TANGENT": 15,
            "TEXCOORD_0": 16
          },
          "indices": 17,
          "material": 1,
          "mode": 4
        }
      ]
    }
  ],
  "nodes": [
    {
      "children": [
        1
      ],
      "name": "RootNode (gltf orientation matrix)",
      "rotation": [
        -0.70710678118654746,
        -0,
        -0,
        0.70710678118654757
      ]
    },
    {
      "children": [
        2
      ],
      "name": "RootNode (model correction matrix)"
    },
    {
      "children": [
        3,
        4,
        5,
        6
      ],
      "name": "W24 - PPAS00 - Sketchfab - mesh.obj.cleaner.materialmerger.gles"
    },
    {
      "mesh": 0,
      "name": ""
    },
    {
      "mesh": 1,
      "name": ""
    },
    {
      "mesh": 2,
      "name": ""
    },
    {
      "mesh": 3,
      "name": ""
    }
  ],
  "samplers": [
    {
      "magFilter": 9729,
      "minFilter": 9987,
      "wrapS": 10497,
      "wrapT": 10497
    }
  ],
  "scene": 0,
  "scenes": [
    {
      "name": "OSG_Scene",
      "nodes": [
        0
      ]
    }
  ],
  "textures": [
    {
      "sampler": 0,
      "source": 0
    },
    {
      "sampler": 0,
      "source": 1
    },
    {
      "sampler": 0,
      "source": 2
    },
    {
      "sampler": 0,
      "source": 3
    },
    {
      "sampler": 0,
      "source": 4
    },
    {
      "sampler": 0,
      "source": 5
    }
  ]
}

